<?xml version="1.0" encoding="UTF-8" standalone="no"?>
<!-- Created with Inkscape (http://www.inkscape.org/) -->

<svg
   width="64"
   height="64"
   viewBox="0 0 16.933333 16.933333"
   version="1.1"
   id="svg1"
   xml:space="preserve"
   inkscape:version="1.4.3 (0d15f75, 2025-12-25)"
   sodipodi:docname="BSplineTangency.svg"
   inkscape:export-filename="Toggle3D2Tree6.png"
   inkscape:export-xdpi="96"
   inkscape:export-ydpi="96"
   xmlns:inkscape="http://www.inkscape.org/namespaces/inkscape"
   xmlns:sodipodi="http://sodipodi.sourceforge.net/DTD/sodipodi-0.dtd"
   xmlns="http://www.w3.org/2000/svg"
   xmlns:svg="http://www.w3.org/2000/svg"><sodipodi:namedview
     id="namedview1"
     pagecolor="#ffffff"
     bordercolor="#000000"
     borderopacity="0.2627451"
     inkscape:showpageshadow="2"
     inkscape:pageopacity="0.0"
     inkscape:pagecheckerboard="0"
     inkscape:deskcolor="#d1d1d1"
     inkscape:document-units="mm"
     inkscape:zoom="3.6128737"
     inkscape:cx="31.553829"
     inkscape:cy="53.558473"
     inkscape:window-width="1920"
     inkscape:window-height="1009"
     inkscape:window-x="1912"
     inkscape:window-y="-8"
     inkscape:window-maximized="1"
     inkscape:current-layer="layer1" /><defs
     id="defs1" /><g
     inkscape:label="Layer 1"
     inkscape:groupmode="layer"
     id="layer1"><path
       style="fill:none;stroke:#000000;stroke-width:1.11845;stroke-dasharray:none"
       d="m 0.56017107,1.6989145 c 0,0 3.51118483,-0.4587011 4.10709063,0.9775747 0.8099489,1.9521707 -0.584091,2.3566676 -0.6766493,4.6492116 -0.075612,1.8728012 4.4060774,1.5163263 4.4060774,1.5163263"
       id="path6"
       sodipodi:nodetypes="cssc" /><path
       style="fill:none;stroke:#000000;stroke-width:1.05626;stroke-dasharray:none"
       d="m 16.150676,15.853347 c 0,0 -3.260435,0.253301 -3.823113,-1.35038 C 11.674154,12.640694 14.24482,12.20436 13.11561,10.16693 12.100488,8.3353491 8.6988798,8.817815 8.6988798,8.817815"
       id="path6-2"
       sodipodi:nodetypes="cssc" /><path
       style="fill:none;stroke:#f2f2f2;stroke-width:1.11845;stroke-dasharray:none"
       d="m 0.51750932,0.67409643 c 0,0 4.38998658,-0.12915039 4.98589258,1.30712537 0.809949,1.9521707 -0.1080733,3.0890025 -0.4569485,4.7956787 -0.3753832,1.8363518 3.4906584,1.0769251 3.4906584,1.0769251"
       id="path6-26"
       sodipodi:nodetypes="cssc" /><path
       style="fill:none;stroke:#f2f2f2;stroke-width:1.05626;stroke-dasharray:none"
       d="m 16.071398,14.938378 c 0,0 -2.447663,0.164015 -2.761227,-0.691279 -0.524291,-1.430083 2.246808,-1.895822 0.53173,-4.8852867 C 12.799829,7.5454294 8.8393018,7.8296136 8.8393018,7.8296136"
       id="path6-2-5"
       sodipodi:nodetypes="cssc" /><path
       style="fill:none;stroke:#0000ff;stroke-width:0.526;stroke-dasharray:1.052, 1.052;stroke-dashoffset:0"
       d="M 0.84218506,7.6162823 16.001516,9.0809521"
       id="path8" /><circle
       style="fill:#ff0000;stroke:none;stroke-width:0.486;stroke-dasharray:none"
       id="path7"
       cx="8.544343"
       cy="8.42453"
       r="0.93211013" /><circle
       style="fill:#ff0000;stroke:none;stroke-width:0.486;stroke-dasharray:none"
       id="path7-9"
       cx="1.5486523"
       cy="7.714407"
       r="0.93211013" /><circle
       style="fill:#ff0000;stroke:none;stroke-width:0.486;stroke-dasharray:none"
       id="path7-5"
       cx="15.477222"
       cy="9.0893106"
       r="0.93211013" /><ellipse
       style="fill:none;stroke:#0000ff;stroke-width:0.526;stroke-dasharray:1.052, 1.052;stroke-dashoffset:0"
       id="path9"
       cx="4.7613702"
       cy="6.2805104"
       rx="1.3365111"
       ry="1.3548194"
       transform="rotate(25.778301)" /><ellipse
       style="fill:none;stroke:#0000ff;stroke-width:0.526;stroke-dasharray:1.052, 1.052;stroke-dashoffset:0"
       id="path9-4"
       cx="17.919704"
       cy="0.25659585"
       rx="1.3365111"
       ry="1.3548194"
       transform="rotate(29.723825)" /></g></svg>
